<svg xmlns="http://www.w3.org/2000/svg">
<symbol id="alert-circle-outline" viewBox="0 0 512 512"><path d="M448,256c0-106-86-192-192-192S64,150,64,256s86,192,192,192S448,362,448,256Z" style="fill:none;stroke:currentColor;stroke-miterlimit:10;stroke-width:32px"/><path d="M250.26,166.05,256,288l5.73-121.95a5.74,5.74,0,0,0-5.79-6h0A5.74,5.74,0,0,0,250.26,166.05Z" style="fill:none;stroke:currentColor;stroke-linecap:round;stroke-linejoin:round;stroke-width:32px"/><path d="M256,367.91a20,20,0,1,1,20-20A20,20,0,0,1,256,367.91Z"/></symbol>
<symbol id="mic-outline" viewBox="0 0 512 512"><line x1="192" y1="448" x2="320" y2="448" style="fill:none;stroke:currentColor;stroke-linecap:round;stroke-linejoin:round;stroke-width:32px"/><path d="M384,208v32c0,70.4-57.6,128-128,128h0c-70.4,0-128-57.6-128-128V208" style="fill:none;stroke:currentColor;stroke-linecap:round;stroke-linejoin:round;stroke-width:32px"/><line x1="256" y1="368" x2="256" y2="448" style="fill:none;stroke:currentColor;stroke-linecap:round;stroke-linejoin:round;stroke-width:32px"/><path d="M256,64a63.68,63.68,0,0,0-64,64V239c0,35.2,29,65,64,65s64-29,64-65V128C320,92,292,64,256,64Z" style="fill:none;stroke:currentColor;stroke-linecap:round;stroke-linejoin:round;stroke-width:32px"/></symbol>
<symbol id="mic-off-outline" viewBox="0 0 512 512"><line x1="432" y1="400" x2="96" y2="64" style="fill:none;stroke:currentColor;stroke-linecap:round;stroke-miterlimit:10;stroke-width:32px"/><path d="M400,240V208.45c0-8.61-6.62-16-15.23-16.43A16,16,0,0,0,368,208v32a111.58,111.58,0,0,1-2.45,23.31,4.05,4.05,0,0,0,1.07,3.69l21.82,21.81a2,2,0,0,0,3.29-.72A143.27,143.27,0,0,0,400,240Z"/><path d="M256,352A112.36,112.36,0,0,1,144,240V208.45c0-8.61-6.62-16-15.23-16.43A16,16,0,0,0,112,208v32c0,74,56.1,135.12,128,143.11V432H192.45c-8.61,0-16,6.62-16.43,15.23A16,16,0,0,0,192,464H319.55c8.61,0,16-6.62,16.43-15.23A16,16,0,0,0,320,432H272V383.11a143.08,143.08,0,0,0,52-16.22,4,4,0,0,0,.91-6.35L307,342.63a4,4,0,0,0-4.51-.78A110.78,110.78,0,0,1,256,352Z"/><path d="M256,80a47.18,47.18,0,0,1,48,48v74.72a4,4,0,0,0,1.17,2.82L332.59,233a2,2,0,0,0,3.41-1.42V128.91C336,85,301,48.6,257.14,48a79.66,79.66,0,0,0-68.47,36.57,4,4,0,0,0,.54,5l19.54,19.54a2,2,0,0,0,3.25-.63A47.44,47.44,0,0,1,256,80Z"/><path d="M207.27,242.9,179.41,215a2,2,0,0,0-3.41,1.42V239a80.89,80.89,0,0,0,23.45,56.9,78.55,78.55,0,0,0,77.8,21.19,2,2,0,0,0,.86-3.35L253.2,288.83a4.08,4.08,0,0,0-2.42-1.15c-21.65-2.52-39.48-20.44-42.37-42.43A4,4,0,0,0,207.27,242.9Z"/></symbol>
<symbol id="videocam-outline" viewBox="0 0 512 512"><path d="M374.79,308.78,457.5,367A16,16,0,0,0,480,352.38V159.62A16,16,0,0,0,457.5,145l-82.71,58.22A16,16,0,0,0,368,216.3v79.4A16,16,0,0,0,374.79,308.78Z" style="fill:none;stroke:currentColor;stroke-linecap:round;stroke-linejoin:round;stroke-width:32px"/><path d="M268,384H84a52.15,52.15,0,0,1-52-52V180a52.15,52.15,0,0,1,52-52H268.48A51.68,51.68,0,0,1,320,179.52V332A52.15,52.15,0,0,1,268,384Z" style="fill:none;stroke:currentColor;stroke-miterlimit:10;stroke-width:32px"/></symbol>
<symbol id="videocam-off-outline" viewBox="0 0 512 512"><path fill="none" stroke="currentColor" stroke-linecap="round" stroke-width="32" stroke-linejoin="round" d="M374.79,308.78,457.5,367A16,16,0,0,0,480,352.38V159.62A16,16,0,0,0,457.5,145l-82.71,58.22A16,16,0,0,0,368,216.3v79.4A16,16,0,0,0,374.79,308.78Z"/><path fill="none" stroke="currentColor" stroke-linecap="round" stroke-width="32" stroke-miterlimit="10" d="M50.19,140.57A51.94,51.94,0,0,0,32,180V332a52.15,52.15,0,0,0,52,52H268a51.6,51.6,0,0,0,22-4.9"/><path fill="none" stroke="currentColor" stroke-linecap="round" stroke-width="32" stroke-miterlimit="10" d="M208,128h60.48A51.68,51.68,0,0,1,320,179.52V248"/><line fill="none" stroke="currentColor" stroke-linecap="round" stroke-width="32" stroke-miterlimit="10" x1="416" y1="416" x2="80" y2="80"/></symbol>
<symbol id="settings-outline" viewBox="0 0 512 512"><path d="M262.29,192.31a64,64,0,1,0,57.4,57.4A64.13,64.13,0,0,0,262.29,192.31ZM416.39,256a154.34,154.34,0,0,1-1.53,20.79l45.21,35.46A10.81,10.81,0,0,1,462.52,326l-42.77,74a10.81,10.81,0,0,1-13.14,4.59l-44.9-18.08a16.11,16.11,0,0,0-15.17,1.75A164.48,164.48,0,0,1,325,400.8a15.94,15.94,0,0,0-8.82,12.14l-6.73,47.89A11.08,11.08,0,0,1,298.77,470H213.23a11.11,11.11,0,0,1-10.69-8.87l-6.72-47.82a16.07,16.07,0,0,0-9-12.22,155.3,155.3,0,0,1-21.46-12.57,16,16,0,0,0-15.11-1.71l-44.89,18.07a10.81,10.81,0,0,1-13.14-4.58l-42.77-74a10.8,10.8,0,0,1,2.45-13.75l38.21-30a16.05,16.05,0,0,0,6-14.08c-.36-4.17-.58-8.33-.58-12.5s.21-8.27.58-12.35a16,16,0,0,0-6.07-13.94l-38.19-30A10.81,10.81,0,0,1,49.48,186l42.77-74a10.81,10.81,0,0,1,13.14-4.59l44.9,18.08a16.11,16.11,0,0,0,15.17-1.75A164.48,164.48,0,0,1,187,111.2a15.94,15.94,0,0,0,8.82-12.14l6.73-47.89A11.08,11.08,0,0,1,213.23,42h85.54a11.11,11.11,0,0,1,10.69,8.87l6.72,47.82a16.07,16.07,0,0,0,9,12.22,155.3,155.3,0,0,1,21.46,12.57,16,16,0,0,0,15.11,1.71l44.89-18.07a10.81,10.81,0,0,1,13.14,4.58l42.77,74a10.8,10.8,0,0,1-2.45,13.75l-38.21,30a16.05,16.05,0,0,0-6.05,14.08C416.17,247.67,416.39,251.83,416.39,256Z" style="fill:none;stroke:currentColor;stroke-linecap:round;stroke-linejoin:round;stroke-width:32px"/></symbol>
<symbol id="volume-high-outline" viewBox="0 0 512 512"><path d="M126,192H56a8,8,0,0,0-8,8V312a8,8,0,0,0,8,8h69.65a15.93,15.93,0,0,1,10.14,3.54l91.47,74.89A8,8,0,0,0,240,392V120a8,8,0,0,0-12.74-6.43l-91.47,74.89A15,15,0,0,1,126,192Z" style="fill:none;stroke:currentColor;stroke-linecap:round;stroke-linejoin:round;stroke-width:32px"/><path d="M320,320c9.74-19.38,16-40.84,16-64,0-23.48-6-44.42-16-64" style="fill:none;stroke:currentColor;stroke-linecap:round;stroke-linejoin:round;stroke-width:32px"/><path d="M368,368c19.48-33.92,32-64.06,32-112s-12-77.74-32-112" style="fill:none;stroke:currentColor;stroke-linecap:round;stroke-linejoin:round;stroke-width:32px"/><path d="M416,416c30-46,48-91.43,48-160S446,143,416,96" style="fill:none;stroke:currentColor;stroke-linecap:round;stroke-linejoin:round;stroke-width:32px"/></symbol>
<symbol id="volume-mute-outline" viewBox="0 0 512 512"><line x1="416" y1="432" x2="64" y2="80" style="fill:none;stroke:currentColor;stroke-linecap:round;stroke-miterlimit:10;stroke-width:32px"/><path d="M224,136.92v33.8a4,4,0,0,0,1.17,2.82l24,24a4,4,0,0,0,6.83-2.82V120.57a24.53,24.53,0,0,0-12.67-21.72,23.91,23.91,0,0,0-25.55,1.83,8.27,8.27,0,0,0-.66.51l-31.94,26.15a4,4,0,0,0-.29,5.92l17.05,17.06a4,4,0,0,0,5.37.26Z"/><path d="M224,375.08l-78.07-63.92A32,32,0,0,0,125.65,304H64V208h50.72a4,4,0,0,0,2.82-6.83l-24-24A4,4,0,0,0,90.72,176H56a24,24,0,0,0-24,24V312a24,24,0,0,0,24,24h69.76l91.36,74.8a8.27,8.27,0,0,0,.66.51A23.93,23.93,0,0,0,243.63,413,24.49,24.49,0,0,0,256,391.45V341.28a4,4,0,0,0-1.17-2.82l-24-24a4,4,0,0,0-6.83,2.82ZM125.82,336Z"/><path d="M352,256c0-24.56-5.81-47.88-17.75-71.27a16,16,0,0,0-28.5,14.54C315.34,218.06,320,236.62,320,256q0,4-.31,8.13a8,8,0,0,0,2.32,6.25l19.66,19.67a4,4,0,0,0,6.75-2A146.89,146.89,0,0,0,352,256Z"/><path d="M416,256c0-51.19-13.08-83.89-34.18-120.06a16,16,0,0,0-27.64,16.12C373.07,184.44,384,211.83,384,256c0,23.83-3.29,42.88-9.37,60.65a8,8,0,0,0,1.9,8.26l16.77,16.76a4,4,0,0,0,6.52-1.27C410.09,315.88,416,289.91,416,256Z"/><path d="M480,256c0-74.26-20.19-121.11-50.51-168.61a16,16,0,1,0-27,17.22C429.82,147.38,448,189.5,448,256c0,47.45-8.9,82.12-23.59,113a4,4,0,0,0,.77,4.55L443,391.39a4,4,0,0,0,6.4-1C470.88,348.22,480,307,480,256Z"/></symbol>
<symbol id="chatbubble-ellipses-outline" viewBox="0 0 512 512"><path d="M87.48,380c1.2-4.38-1.43-10.47-3.94-14.86A42.63,42.63,0,0,0,81,361.34a199.81,199.81,0,0,1-33-110C47.64,139.09,140.72,48,255.82,48,356.2,48,440,117.54,459.57,209.85A199,199,0,0,1,464,251.49c0,112.41-89.49,204.93-204.59,204.93-18.31,0-43-4.6-56.47-8.37s-26.92-8.77-30.39-10.11a31.14,31.14,0,0,0-11.13-2.07,30.7,30.7,0,0,0-12.08,2.43L81.5,462.78A15.92,15.92,0,0,1,76.84,464a9.61,9.61,0,0,1-9.58-9.74,15.85,15.85,0,0,1,.6-3.29Z" style="fill:none;stroke:currentColor;stroke-linecap:round;stroke-miterlimit:10;stroke-width:32px"/><circle cx="160" cy="256" r="32"/><circle cx="256" cy="256" r="32"/><circle cx="352" cy="256" r="32"/></symbol>
<symbol id="thumbs-up-outline" viewBox="0 0 512 512"><path d="M320,458.16S304,464,256,464s-74-16-96-32H96a64,64,0,0,1-64-64V320a64,64,0,0,1,64-64h30a32.34,32.34,0,0,0,27.37-15.4S162,221.81,188,176.78,264,64,272,48c29,0,43,22,34,47.71-10.28,29.39-23.71,54.38-27.46,87.09-.54,4.78,3.14,12,7.95,12L416,205" style="fill:none;stroke:currentColor;stroke-linecap:round;stroke-linejoin:round;stroke-width:32px"/><path d="M416,271l-80-2c-20-1.84-32-12.4-32-30h0c0-17.6,14-28.84,32-30l80-4c17.6,0,32,16.4,32,34v.17A32,32,0,0,1,416,271Z" style="fill:none;stroke:currentColor;stroke-miterlimit:10;stroke-width:32px"/><path d="M448,336l-112-2c-18-.84-32-12.41-32-30h0c0-17.61,14-28.86,32-30l112-2a32.1,32.1,0,0,1,32,32h0A32.1,32.1,0,0,1,448,336Z" style="fill:none;stroke:currentColor;stroke-miterlimit:10;stroke-width:32px"/><path d="M400,464l-64-3c-21-1.84-32-11.4-32-29h0c0-17.6,14.4-30,32-30l64-2a32.09,32.09,0,0,1,32,32h0A32.09,32.09,0,0,1,400,464Z" style="fill:none;stroke:currentColor;stroke-miterlimit:10;stroke-width:32px"/><path d="M432,400l-96-2c-19-.84-32-12.4-32-30h0c0-17.6,13-28.84,32-30l96-2a32.09,32.09,0,0,1,32,32h0A32.09,32.09,0,0,1,432,400Z" style="fill:none;stroke:currentColor;stroke-miterlimit:10;stroke-width:32px"/></symbol>
<symbol id="thumbs-down-outline" viewBox="0 0 512 512"><path d="M192,53.84S208,48,256,48s74,16,96,32h64a64,64,0,0,1,64,64v48a64,64,0,0,1-64,64H386a32.34,32.34,0,0,0-27.37,15.4S350,290.19,324,335.22,248,448,240,464c-29,0-43-22-34-47.71,10.28-29.39,23.71-54.38,27.46-87.09.54-4.78-3.14-12-8-12L96,307" style="fill:none;stroke:currentColor;stroke-linecap:round;stroke-linejoin:round;stroke-width:32px"/><path d="M96,241l80,2c20,1.84,32,12.4,32,30h0c0,17.6-14,28.84-32,30l-80,4c-17.6,0-32-16.4-32-34v-.17A32,32,0,0,1,96,241Z" style="fill:none;stroke:currentColor;stroke-miterlimit:10;stroke-width:32px"/><path d="M64,176l112,2c18,.84,32,12.41,32,30h0c0,17.61-14,28.86-32,30L64,240a32.1,32.1,0,0,1-32-32h0A32.1,32.1,0,0,1,64,176Z" style="fill:none;stroke:currentColor;stroke-miterlimit:10;stroke-width:32px"/><path d="M112,48l64,3c21,1.84,32,11.4,32,29h0c0,17.6-14.4,30-32,30l-64,2A32.09,32.09,0,0,1,80,80h0A32.09,32.09,0,0,1,112,48Z" style="fill:none;stroke:currentColor;stroke-miterlimit:10;stroke-width:32px"/><path d="M80,112l96,2c19,.84,32,12.4,32,30h0c0,17.6-13,28.84-32,30l-96,2a32.09,32.09,0,0,1-32-32h0A32.09,32.09,0,0,1,80,112Z" style="fill:none;stroke:currentColor;stroke-miterlimit:10;stroke-width:32px"/></symbol>
<symbol id="code-slash-outline" viewBox="0 0 512 512"><polyline points="160 368 32 256 160 144" style="fill:none;stroke:currentColor;stroke-linecap:round;stroke-linejoin:round;stroke-width:32px"/><polyline points="352 368 480 256 352 144" style="fill:none;stroke:currentColor;stroke-linecap:round;stroke-linejoin:round;stroke-width:32px"/><line x1="304" y1="96" x2="208" y2="416" style="fill:none;stroke:currentColor;stroke-linecap:round;stroke-linejoin:round;stroke-width:32px"/></symbol>
<symbol id="sunny-outline" viewBox="0 0 512 512"><line x1="256" y1="48" x2="256" y2="96" style="fill:none;stroke:currentColor;stroke-linecap:round;stroke-miterlimit:10;stroke-width:32px"/><line x1="256" y1="416" x2="256" y2="464" style="fill:none;stroke:currentColor;stroke-linecap:round;stroke-miterlimit:10;stroke-width:32px"/><line x1="403.08" y1="108.92" x2="369.14" y2="142.86" style="fill:none;stroke:currentColor;stroke-linecap:round;stroke-miterlimit:10;stroke-width:32px"/><line x1="142.86" y1="369.14" x2="108.92" y2="403.08" style="fill:none;stroke:currentColor;stroke-linecap:round;stroke-miterlimit:10;stroke-width:32px"/><line x1="464" y1="256" x2="416" y2="256" style="fill:none;stroke:currentColor;stroke-linecap:round;stroke-miterlimit:10;stroke-width:32px"/><line x1="96" y1="256" x2="48" y2="256" style="fill:none;stroke:currentColor;stroke-linecap:round;stroke-miterlimit:10;stroke-width:32px"/><line x1="403.08" y1="403.08" x2="369.14" y2="369.14" style="fill:none;stroke:currentColor;stroke-linecap:round;stroke-miterlimit:10;stroke-width:32px"/><line x1="142.86" y1="142.86" x2="108.92" y2="108.92" style="fill:none;stroke:currentColor;stroke-linecap:round;stroke-miterlimit:10;stroke-width:32px"/><circle cx="256" cy="256" r="80" style="fill:none;stroke:currentColor;stroke-linecap:round;stroke-miterlimit:10;stroke-width:32px"/></symbol>
<symbol id="moon-outline" viewBox="0 0 512 512"><path d="M160,136c0-30.62,4.51-61.61,16-88C99.57,81.27,48,159.32,48,248c0,119.29,96.71,216,216,216,88.68,0,166.73-51.57,200-128-26.39,11.49-57.38,16-88,16C256.71,352,160,255.29,160,136Z" style="fill:none;stroke:currentColor;stroke-linecap:round;stroke-linejoin:round;stroke-width:32px"/></symbol>
<symbol id="people-outline" viewBox="0 0 512 512"><path d="M402,168c-2.93,40.67-33.1,72-66,72s-63.12-31.32-66-72c-3-42.31,26.37-72,66-72S405,126.46,402,168Z" style="fill:none;stroke:currentColor;stroke-linecap:round;stroke-linejoin:round;stroke-width:32px"/><path d="M336,304c-65.17,0-127.84,32.37-143.54,95.41-2.08,8.34,3.15,16.59,11.72,16.59H467.83c8.57,0,13.77-8.25,11.72-16.59C463.85,335.36,401.18,304,336,304Z" style="fill:none;stroke:currentColor;stroke-miterlimit:10;stroke-width:32px"/><path d="M200,185.94C197.66,218.42,173.28,244,147,244S96.3,218.43,94,185.94C91.61,152.15,115.34,128,147,128S202.39,152.77,200,185.94Z" style="fill:none;stroke:currentColor;stroke-linecap:round;stroke-linejoin:round;stroke-width:32px"/><path d="M206,306c-18.05-8.27-37.93-11.45-59-11.45-52,0-102.1,25.85-114.65,76.2C30.7,377.41,34.88,384,41.72,384H154" style="fill:none;stroke:currentColor;stroke-linecap:round;stroke-miterlimit:10;stroke-width:32px"/></symbol>
<symbol id="clipboard-outline" viewBox="0 0 512 512"><path d="M336,64h32a48,48,0,0,1,48,48V432a48,48,0,0,1-48,48H144a48,48,0,0,1-48-48V112a48,48,0,0,1,48-48h32" style="fill:none;stroke:currentColor;stroke-linejoin:round;stroke-width:32px"/><rect x="176" y="32" width="160" height="64" rx="26.13" ry="26.13" style="fill:none;stroke:currentColor;stroke-linejoin:round;stroke-width:32px"/></symbol>
<symbol id="refresh-outline" viewBox="0 0 512 512"><path d="M320,146s24.36-12-64-12A160,160,0,1,0,416,294" style="fill:none;stroke:currentColor;stroke-linecap:round;stroke-miterlimit:10;stroke-width:32px"/><polyline points="256 58 336 138 256 218" style="fill:none;stroke:currentColor;stroke-linecap:round;stroke-linejoin:round;stroke-width:32px"/></symbol>
<symbol id="tv-outline" viewBox="0 0 512 512"><rect x="32" y="96" width="448" height="272" rx="32.14" ry="32.14" style="fill:none;stroke:currentColor;stroke-linejoin:round;stroke-width:32px"/><line x1="128" y1="416" x2="384" y2="416" style="stroke:currentColor;stroke-linecap:round;stroke-miterlimit:10;stroke-width:32px"/></symbol>
<symbol id="add-outline" viewBox="0 0 512 512"><line x1="256" y1="112" x2="256" y2="400" style="fill:none;stroke:currentColor;stroke-linecap:round;stroke-linejoin:round;stroke-width:32px"/><line x1="400" y1="256" x2="112" y2="256" style="fill:none;stroke:currentColor;stroke-linecap:round;stroke-linejoin:round;stroke-width:32px"/></symbol>
<symbol id="trash-outline" viewBox="0 0 512 512"><path d="M112,112l20,320c.95,18.49,14.4,32,32,32H348c17.67,0,30.87-13.51,32-32l20-320" style="fill:none;stroke:currentColor;stroke-linecap:round;stroke-linejoin:round;stroke-width:32px"/><line x1="80" y1="112" x2="432" y2="112" style="stroke:currentColor;stroke-linecap:round;stroke-miterlimit:10;stroke-width:32px"/><path d="M192,112V72h0a23.93,23.93,0,0,1,24-24h80a23.93,23.93,0,0,1,24,24h0v40" style="fill:none;stroke:currentColor;stroke-linecap:round;stroke-linejoin:round;stroke-width:32px"/><line x1="256" y1="176" x2="256" y2="400" style="fill:none;stroke:currentColor;stroke-linecap:round;stroke-linejoin:round;stroke-width:32px"/><line x1="184" y1="176" x2="192" y2="400" style="fill:none;stroke:currentColor;stroke-linecap:round;stroke-linejoin:round;stroke-width:32px"/><line x1="328" y1="176" x2="320" y2="400" style="fill:none;stroke:currentColor;stroke-linecap:round;stroke-linejoin:round;stroke-width:32px"/></symbol>
<symbol id="close-outline" viewBox="0 0 512 512"><line x1="368" y1="368" x2="144" y2="144" style="fill:none;stroke:currentColor;stroke-linecap:round;stroke-linejoin:round;stroke-width:32px"/><line x1="368" y1="144" x2="144" y2="368" style="fill:none;stroke:currentColor;stroke-linecap:round;stroke-linejoin:round;stroke-width:32px"/></symbol>
<symbol id="chevron-forward-outline" viewBox="0 0 512 512"><polyline points="184 112 328 256 184 400" style="fill:none;stroke:currentColor;stroke-linecap:round;stroke-linejoin:round;stroke-width:48px"/></symbol>
<symbol id="link-outline" viewBox="0 0 512 512"><path d="M208,352H144a96,96,0,0,1,0-192h64" style="fill:none;stroke:currentColor;stroke-linecap:round;stroke-linejoin:round;stroke-width:36px"/><path d="M304,160h64a96,96,0,0,1,0,192H304" style="fill:none;stroke:currentColor;stroke-linecap:round;stroke-linejoin:round;stroke-width:36px"/><line x1="163.29" y1="256" x2="350.71" y2="256" style="fill:none;stroke:currentColor;stroke-linecap:round;stroke-linejoin:round;stroke-width:36px"/></symbol>
<symbol id="chevron-down-outline" viewBox="0 0 512 512"><polyline points="112 184 256 328 400 184" style="fill:none;stroke:currentColor;stroke-linecap:round;stroke-linejoin:round;stroke-width:48px"/></symbol>
<symbol id="options-outline" viewBox="0 0 512 512"><line x1="368" y1="128" x2="448" y2="128" style="fill:none;stroke:currentColor;stroke-linecap:round;stroke-linejoin:round;stroke-width:32px"/><line x1="64" y1="128" x2="304" y2="128" style="fill:none;stroke:currentColor;stroke-linecap:round;stroke-linejoin:round;stroke-width:32px"/><line x1="368" y1="384" x2="448" y2="384" style="fill:none;stroke:currentColor;stroke-linecap:round;stroke-linejoin:round;stroke-width:32px"/><line x1="64" y1="384" x2="304" y2="384" style="fill:none;stroke:currentColor;stroke-linecap:round;stroke-linejoin:round;stroke-width:32px"/><line x1="208" y1="256" x2="448" y2="256" style="fill:none;stroke:currentColor;stroke-linecap:round;stroke-linejoin:round;stroke-width:32px"/><line x1="64" y1="256" x2="144" y2="256" style="fill:none;stroke:currentColor;stroke-linecap:round;stroke-linejoin:round;stroke-width:32px"/><circle cx="336" cy="128" r="32" style="fill:none;stroke:currentColor;stroke-linecap:round;stroke-linejoin:round;stroke-width:32px"/><circle cx="176" cy="256" r="32" style="fill:none;stroke:currentColor;stroke-linecap:round;stroke-linejoin:round;stroke-width:32px"/><circle cx="336" cy="384" r="32" style="fill:none;stroke:currentColor;stroke-linecap:round;stroke-linejoin:round;stroke-width:32px"/></symbol>
<symbol id="ellipsis-vertical-outline" viewBox="0 0 512 512"><circle cx="256" cy="256" r="32" style="fill:none;stroke:currentColor;stroke-miterlimit:10;stroke-width:32px"/><circle cx="256" cy="416" r="32" style="fill:none;stroke:currentColor;stroke-miterlimit:10;stroke-width:32px"/><circle cx="256" cy="96" r="32" style="fill:none;stroke:currentColor;stroke-miterlimit:10;stroke-width:32px"/></symbol>
<symbol id="cube-outline" viewBox="0 0 512 512"><path d="M448,341.37V170.61A32,32,0,0,0,432.11,143l-152-88.46a47.94,47.94,0,0,0-48.24,0L79.89,143A32,32,0,0,0,64,170.61V341.37A32,32,0,0,0,79.89,369l152,88.46a48,48,0,0,0,48.24,0l152-88.46A32,32,0,0,0,448,341.37Z" style="fill:none;stroke:currentColor;stroke-linecap:round;stroke-linejoin:round;stroke-width:32px"/><polyline points="69 153.99 256 263.99 443 153.99" style="fill:none;stroke:currentColor;stroke-linecap:round;stroke-linejoin:round;stroke-width:32px"/><line x1="256" y1="463.99" x2="256" y2="263.99" style="fill:none;stroke:currentColor;stroke-linecap:round;stroke-linejoin:round;stroke-width:32px"/></symbol>
<symbol id="golf-outline" viewBox="0 0 512 512"><polyline points="256 400 256 32 432 112 256 192" style="fill:none;stroke:currentColor;stroke-linecap:round;stroke-linejoin:round;stroke-width:32px"/><path d="M256,336c-87,0-175.3,43.2-191.64,124.74C62.39,470.57,68.57,480,80,480H432c11.44,0,17.62-9.43,15.65-19.26C431.3,379.2,343,336,256,336Z" style="fill:none;stroke:currentColor;stroke-miterlimit:10;stroke-width:32px"/></symbol>
<symbol id="exit-outline" viewBox="0 0 512 512"><path d="M320,176V136a40,40,0,0,0-40-40H88a40,40,0,0,0-40,40V376a40,40,0,0,0,40,40H280a40,40,0,0,0,40-40V336" style="fill:none;stroke:currentColor;stroke-linecap:round;stroke-linejoin:round;stroke-width:32px"/><polyline points="384 176 464 256 384 336" style="fill:none;stroke:currentColor;stroke-linecap:round;stroke-linejoin:round;stroke-width:32px"/><line x1="191" y1="256" x2="464" y2="256" style="fill:none;stroke:currentColor;stroke-linecap:round;stroke-linejoin:round;stroke-width:32px"/></symbol>
<symbol id="call-outline" viewBox="0 0 512 512"><path d="M451,374c-15.88-16-54.34-39.35-73-48.76C353.7,313,351.7,312,332.6,326.19c-12.74,9.47-21.21,17.93-36.12,14.75s-47.31-21.11-75.68-49.39-47.34-61.62-50.53-76.48,5.41-23.23,14.79-36c13.22-18,12.22-21,.92-45.3-8.81-18.9-32.84-57-48.9-72.8C119.9,44,119.9,47,108.83,51.6A160.15,160.15,0,0,0,83,65.37C67,76,58.12,84.83,51.91,98.1s-9,44.38,23.07,102.64,54.57,88.05,101.14,134.49S258.5,406.64,310.85,436c64.76,36.27,89.6,29.2,102.91,23s22.18-15,32.83-31a159.09,159.09,0,0,0,13.8-25.8C465,391.17,468,391.17,451,374Z" style="fill:none;stroke:currentColor;stroke-miterlimit:10;stroke-width:32px"/></symbol>
<symbol id="reorder-four-outline" viewBox="0 0 512 512"><line x1="96" y1="304" x2="416" y2="304" style="fill:none;stroke:currentColor;stroke-linecap:round;stroke-linejoin:round;stroke-width:32px"/><line x1="96" y1="208" x2="416" y2="208" style="fill:none;stroke:currentColor;stroke-linecap:round;stroke-linejoin:round;stroke-width:32px"/><line x1="96" y1="112" x2="416" y2="112" style="fill:none;stroke:currentColor;stroke-linecap:round;stroke-linejoin:round;stroke-width:32px"/><line x1="96" y1="400" x2="416" y2="400" style="fill:none;stroke:currentColor;stroke-linecap:round;stroke-linejoin:round;stroke-width:32px"/></symbol>
<symbol id="stop-circle" viewBox="0 0 512 512"><path d="M256,48C141.31,48,48,141.31,48,256s93.31,208,208,208,208-93.31,208-208S370.69,48,256,48Zm80,262.4A25.62,25.62,0,0,1,310.4,336H201.6A25.62,25.62,0,0,1,176,310.4V201.6A25.62,25.62,0,0,1,201.6,176H310.4A25.62,25.62,0,0,1,336,201.6Z"/></symbol>
<symbol id="person-add-outline" viewBox="0 0 512 512"><path d="M376,144c-3.92,52.87-44,96-88,96s-84.15-43.12-88-96c-4-55,35-96,88-96S380,90,376,144Z" style="fill:none;stroke:currentColor;stroke-linecap:round;stroke-linejoin:round;stroke-width:32px"/><path d="M288,304c-87,0-175.3,48-191.64,138.6-2,10.92,4.21,21.4,15.65,21.4H464c11.44,0,17.62-10.48,15.65-21.4C463.3,352,375,304,288,304Z" style="fill:none;stroke:currentColor;stroke-miterlimit:10;stroke-width:32px"/><line x1="88" y1="176" x2="88" y2="288" style="fill:none;stroke:currentColor;stroke-linecap:round;stroke-linejoin:round;stroke-width:32px"/><line x1="144" y1="232" x2="32" y2="232" style="fill:none;stroke:currentColor;stroke-linecap:round;stroke-linejoin:round;stroke-width:32px"/></symbol>
<symbol id="time-outline" viewBox="0 0 512 512"><path d="M256,64C150,64,64,150,64,256s86,192,192,192,192-86,192-192S362,64,256,64Z" style="fill:none;stroke:currentColor;stroke-miterlimit:10;stroke-width:32px"/><polyline points="256 128 256 272 352 272" style="fill:none;stroke:currentColor;stroke-linecap:round;stroke-linejoin:round;stroke-width:32px"/></symbol>
<symbol id="checkmark-done-outline" viewBox="0 0 512 512"><polyline points="464 128 240 384 144 288" style="fill:none;stroke:currentColor;stroke-linecap:round;stroke-linejoin:round;stroke-width:32px"/><line x1="144" y1="384" x2="48" y2="288" style="fill:none;stroke:currentColor;stroke-linecap:round;stroke-linejoin:round;stroke-width:32px"/><line x1="368" y1="128" x2="232" y2="284" style="fill:none;stroke:currentColor;stroke-linecap:round;stroke-linejoin:round;stroke-width:32px"/></symbol>
<symbol id="information-circle-outline" viewBox="0 0 512 512"><path d="M248,64C146.39,64,64,146.39,64,248s82.39,184,184,184,184-82.39,184-184S349.61,64,248,64Z" style="fill:none;stroke:currentColor;stroke-miterlimit:10;stroke-width:32px"/><polyline points="220 220 252 220 252 336" style="fill:none;stroke:currentColor;stroke-linecap:round;stroke-linejoin:round;stroke-width:32px"/><line x1="208" y1="340" x2="296" y2="340" style="fill:none;stroke:currentColor;stroke-linecap:round;stroke-miterlimit:10;stroke-width:32px"/><path d="M248,130a26,26,0,1,0,26,26A26,26,0,0,0,248,130Z"/></symbol>
<symbol id="chevron-back" viewBox="0 0 512 512"><polyline points="328 112 184 256 328 400" style="fill:none;stroke:currentColor;stroke-linecap:round;stroke-linejoin:round;stroke-width:48px"/></symbol>
<symbol id="home-outline" viewBox="0 0 512 512"><path d="M80,212V448a16,16,0,0,0,16,16h96V328a24,24,0,0,1,24-24h80a24,24,0,0,1,24,24V464h96a16,16,0,0,0,16-16V212" style="fill:none;stroke:currentColor;stroke-linecap:round;stroke-linejoin:round;stroke-width:32px"/><path d="M480,256,266.89,52c-5-5.28-16.69-5.34-21.78,0L32,256" style="fill:none;stroke:currentColor;stroke-linecap:round;stroke-linejoin:round;stroke-width:32px"/><polyline points="400 179 400 64 352 64 352 133" style="fill:none;stroke:currentColor;stroke-linecap:round;stroke-linejoin:round;stroke-width:32px"/></symbol>
<symbol id="help-circle-outline" viewBox="0 0 512 512"><path d="M256,80A176,176,0,1,0,432,256,176,176,0,0,0,256,80Z" style="fill:none;stroke:currentColor;stroke-miterlimit:10;stroke-width:32px"/><path d="M200,202.29s.84-17.5,19.57-32.57C230.68,160.77,244,158.18,256,158c10.93-.14,20.69,1.67,26.53,4.45,10,4.76,29.47,16.38,29.47,41.09,0,26-17,37.81-36.37,50.8S251,281.43,251,296" style="fill:none;stroke:currentColor;stroke-linecap:round;stroke-miterlimit:10;stroke-width:28px"/><circle cx="250" cy="348" r="20"/></symbol>
<symbol id="paper-plane-outline" viewBox="0 0 512 512"><path d="M53.12,199.94l400-151.39a8,8,0,0,1,10.33,10.33l-151.39,400a8,8,0,0,1-15-.34L229.66,292.45a16,16,0,0,0-10.11-10.11L53.46,215A8,8,0,0,1,53.12,199.94Z" style="fill:none;stroke:currentColor;stroke-linecap:round;stroke-linejoin:round;stroke-width:32px"/><line x1="460" y1="52" x2="227" y2="285" style="fill:none;stroke:currentColor;stroke-linecap:round;stroke-linejoin:round;stroke-width:32px"/></symbol>
<symbol id="checkmark" viewBox="0 0 512 512"><polyline points="416 128 192 384 96 288" style="fill:none;stroke:currentColor;stroke-linecap:round;stroke-linejoin:round;stroke-width:32px"/></symbol>
<symbol id="play-outline" viewBox="0 0 512 512"><path d="M112,111V401c0,17.44,17,28.52,31,20.16l247.9-148.37c12.12-7.25,12.12-26.33,0-33.58L143,90.84C129,82.48,112,93.56,112,111Z" style="fill:none;stroke:currentColor;stroke-miterlimit:10;stroke-width:32px"/></symbol>
<symbol id="today-outline" viewBox="0 0 512 512"><rect fill="none" stroke="currentColor" stroke-linejoin="round" stroke-width="32" x="48" y="80" width="416" height="384" rx="48"/><line fill="none" stroke="currentColor" stroke-linejoin="round" stroke-width="32" stroke-linecap="round" x1="128" y1="48" x2="128" y2="80"/><line fill="none" stroke="currentColor" stroke-linejoin="round" stroke-width="32" stroke-linecap="round" x1="384" y1="48" x2="384" y2="80"/><rect fill="none" stroke="currentColor" stroke-linejoin="round" stroke-width="32" stroke-linecap="round" x="112" y="224" width="96" height="96" rx="13"/><line fill="none" stroke="currentColor" stroke-linejoin="round" stroke-width="32" stroke-linecap="round" x1="464" y1="160" x2="48" y2="160"/></symbol>
<symbol id="search" viewBox="0 0 512 512"><path d="M456.69,421.39,362.6,327.3a173.81,173.81,0,0,0,34.84-104.58C397.44,126.38,319.06,48,222.72,48S48,126.38,48,222.72s78.38,174.72,174.72,174.72A173.81,173.81,0,0,0,327.3,362.6l94.09,94.09a25,25,0,0,0,35.3-35.3ZM97.92,222.72a124.8,124.8,0,1,1,124.8,124.8A124.95,124.95,0,0,1,97.92,222.72Z"/></symbol>
<symbol id="hourglass" viewBox="0 0 512 512"><path d="M415.7,427.13c-8.74-76.89-43.83-108.76-69.46-132C328.52,279,320,270.61,320,256c0-14.41,8.49-22.64,26.16-38.44,25.93-23.17,61.44-54.91,69.56-132.84a47,47,0,0,0-12-36.26A50.3,50.3,0,0,0,366.39,32H145.61a50.34,50.34,0,0,0-37.39,16.46A47.05,47.05,0,0,0,96.28,84.72c8.09,77.68,43.47,109.19,69.3,132.19C183.42,232.8,192,241.09,192,256c0,15.1-8.6,23.56-26.5,39.75C140,318.85,105,350.48,96.3,427.13A46.59,46.59,0,0,0,108,463.33,50.44,50.44,0,0,0,145.61,480H366.39A50.44,50.44,0,0,0,404,463.33,46.59,46.59,0,0,0,415.7,427.13ZM343.3,432H169.13c-15.6,0-20-18-9.06-29.16C186.55,376,240,356.78,240,326V224c0-19.85-38-35-61.51-67.2-3.88-5.31-3.49-12.8,6.37-12.8H327.59c8.41,0,10.22,7.43,6.4,12.75C310.82,189,272,204.05,272,224V326c0,30.53,55.71,47,80.4,76.87C362.35,414.91,358.87,432,343.3,432Z"/></symbol>
</svg>